<?xml version="1.0" encoding="utf-8"?>
<!-- Generator: Adobe Illustrator 16.0.3, SVG Export Plug-In . SVG Version: 6.00 Build 0)  -->
<!DOCTYPE svg PUBLIC "-//W3C//DTD SVG 1.1//EN" "http://www.w3.org/Graphics/SVG/1.1/DTD/svg11.dtd" [
	<!ENTITY ns_flows "http://ns.adobe.com/Flows/1.0/">
	<!ENTITY ns_extend "http://ns.adobe.com/Extensibility/1.0/">
	<!ENTITY ns_ai "http://ns.adobe.com/AdobeIllustrator/10.0/">
	<!ENTITY ns_graphs "http://ns.adobe.com/Graphs/1.0/">
]>
<svg version="1.1" xmlns:x="&ns_extend;" xmlns:i="&ns_ai;" xmlns:graph="&ns_graphs;"
	 xmlns="http://www.w3.org/2000/svg" xmlns:xlink="http://www.w3.org/1999/xlink" xmlns:a="http://ns.adobe.com/AdobeSVGViewerExtensions/3.0/"
	 x="0px" y="0px" width="400px" height="400px" viewBox="0 0 400 400" enable-background="new 0 0 400 400" xml:space="preserve">
<g id="Layer_1">
</g>
<g id="Layer_2">
	<g>
		<path stroke="#000000" stroke-miterlimit="10" d="M200.43,304c-24.744,0-45.028-19.813-45.028-44.167
			c0-13.051,6.098-25.293,15.098-33.715V68.5h57v157.32c11,8.326,16.715,20.672,16.715,34.013
			C244.215,284.187,224.658,304,200.43,304z"/>
		<g>
			<path fill="#FFCC00" stroke="#000000" stroke-miterlimit="10" d="M181.5,231.017V78.5h37v152.517
				c9,6.072,15.559,16.716,15.559,28.816c0,18.84-15.697,34.167-34.72,34.167c-19.023,0-34.169-15.327-34.169-34.167
				C165.169,247.732,171.5,237.089,181.5,231.017z"/>
		</g>
	</g>
	<path fill="none" stroke="#000000" stroke-width="4" stroke-linecap="round" stroke-miterlimit="10" d="M197.305,105 M181.305,105"
		/>
	<path fill="none" stroke="#000000" stroke-width="4" stroke-linecap="round" stroke-miterlimit="10" d="M193.305,113"/>
	<path fill="none" stroke="#000000" stroke-width="4" stroke-linecap="round" stroke-miterlimit="10" d="M177.305,113"/>
	<path fill="none" stroke="#000000" stroke-width="4" stroke-linecap="round" stroke-miterlimit="10" d="M193.305,131"/>
	<path fill="none" stroke="#000000" stroke-width="4" stroke-linecap="round" stroke-miterlimit="10" d="M177.305,131"/>
	<path fill="none" stroke="#000000" stroke-width="4" stroke-linecap="round" stroke-miterlimit="10" d="M193.305,159"/>
	<path fill="none" stroke="#000000" stroke-width="4" stroke-linecap="round" stroke-miterlimit="10" d="M178.305,159"/>
	<path fill="none" stroke="#000000" stroke-width="4" stroke-linecap="round" stroke-miterlimit="10" d="M194.305,146"/>
	<path fill="none" stroke="#000000" stroke-width="4" stroke-linecap="round" stroke-miterlimit="10" d="M178.305,146"/>
	<path fill="none" stroke="#000000" stroke-width="4" stroke-linecap="round" stroke-miterlimit="10" d="M180.305,171"/>
	<path fill="none" stroke="#000000" stroke-width="4" stroke-linecap="round" stroke-miterlimit="10" d="M176.305,184"/>
	<path fill="none" stroke="#000000" stroke-width="4" stroke-linecap="round" stroke-miterlimit="10" d="M179.305,196"/>
	<path fill="none" stroke="#000000" stroke-width="4" stroke-linecap="round" stroke-miterlimit="10" d="M197.305,126"/>
	<path fill="none" stroke="#000000" stroke-width="4" stroke-linecap="round" stroke-miterlimit="10" d="M181.305,126"/>
	<rect x="182.5" y="79.5" opacity="0.7" fill="#FFEB99" stroke="#FFEB99" stroke-miterlimit="10" width="35" height="21"/>
	
		<line fill="none" stroke="#000000" stroke-width="4" stroke-linecap="round" stroke-miterlimit="10" x1="177" y1="113" x2="202" y2="113"/>
	
		<line fill="none" stroke="#000000" stroke-width="4" stroke-linecap="round" stroke-miterlimit="10" x1="173" y1="123" x2="194" y2="123"/>
	
		<line fill="none" stroke="#000000" stroke-width="4" stroke-linecap="round" stroke-miterlimit="10" x1="177" y1="133" x2="202" y2="133"/>
	
		<line fill="none" stroke="#000000" stroke-width="4" stroke-linecap="round" stroke-miterlimit="10" x1="177" y1="143" x2="194" y2="143"/>
	
		<line fill="none" stroke="#000000" stroke-width="4" stroke-linecap="round" stroke-miterlimit="10" x1="177" y1="153" x2="202" y2="153"/>
	
		<line fill="none" stroke="#000000" stroke-width="4" stroke-linecap="round" stroke-miterlimit="10" x1="177" y1="163" x2="194" y2="163"/>
	
		<line fill="none" stroke="#000000" stroke-width="4" stroke-linecap="round" stroke-miterlimit="10" x1="177" y1="173" x2="202" y2="173"/>
	
		<line fill="none" stroke="#000000" stroke-width="4" stroke-linecap="round" stroke-miterlimit="10" x1="177" y1="183" x2="194" y2="183"/>
	
		<line fill="none" stroke="#000000" stroke-width="4" stroke-linecap="round" stroke-miterlimit="10" x1="177" y1="193" x2="202" y2="193"/>
	
		<line fill="none" stroke="#000000" stroke-width="4" stroke-linecap="round" stroke-miterlimit="10" x1="177" y1="203" x2="194" y2="203"/>
	
		<line fill="none" stroke="#000000" stroke-width="4" stroke-linecap="round" stroke-miterlimit="10" x1="177" y1="213" x2="202" y2="213"/>
	
		<line fill="none" stroke="#000000" stroke-width="4" stroke-linecap="round" stroke-miterlimit="10" x1="177" y1="223" x2="195" y2="223"/>
	<path fill="none" stroke="#000000" stroke-width="4" stroke-linecap="round" stroke-miterlimit="10" d="M202.305,233"/>
	<path fill="none" stroke="#000000" stroke-width="4" stroke-linecap="round" stroke-miterlimit="10" d="M177.305,233"/>
	
		<rect x="223" y="106" fill="none" stroke="#000000" stroke-width="10" stroke-linecap="round" stroke-linejoin="round" stroke-miterlimit="10" width="43" height="113"/>
	<rect x="225.5" y="110.5" fill="none" stroke="#000000" stroke-width="9" stroke-miterlimit="10" width="36" height="103"/>
	<line fill="none" x1="220" y1="70" x2="220" y2="107"/>
	
		<line fill="none" stroke="#FFEB99" stroke-width="9" stroke-linecap="round" stroke-miterlimit="10" x1="217.5" y1="70" x2="217.5" y2="113"/>
	<ellipse fill="#FFEB99" cx="175.305" cy="73.5" rx="16.5" ry="15"/>
	<ellipse fill="#FFEB99" cx="199.555" cy="66.875" rx="20.75" ry="18.625"/>
	<circle fill="#FFEB99" stroke="#FFEB99" stroke-miterlimit="10" cx="222.805" cy="72.5" r="15"/>
	<text transform="matrix(1 0 0 1 183.0972 254)" font-family="'Tahoma'" font-size="12">                 </text>
	
		<rect x="201.608" y="242.451" transform="matrix(0.9924 -0.1228 0.1228 0.9924 -29.6253 32.3511)" stroke="#000000" stroke-miterlimit="10" width="92" height="28.068"/>
	<text transform="matrix(0.9814 -0.1349 0.1362 0.9907 201.1084 267.9512)"><tspan x="0" y="0" fill="#FFCC00" stroke="#FFCC00" stroke-miterlimit="10" font-family="'Rockwell'" font-size="14">   </tspan><tspan x="10.5" y="0" fill="#FFCC00" stroke="#FFCC00" stroke-miterlimit="10" font-family="'Bahnschrift'" font-size="14">Thermo</tspan><tspan x="58.161" y="0.001" fill="#FFFFFF" stroke="#FFFFFF" stroke-miterlimit="10" font-family="'Bahnschrift'" font-size="14">Beer</tspan></text>
	
		<line fill="none" stroke="#FFEB99" stroke-width="9" stroke-linecap="round" stroke-miterlimit="10" x1="189.5" y1="57" x2="189.5" y2="100"/>
</g>
</svg>
